<svg xmlns="http://www.w3.org/2000/svg" style="cursor: move;" width="1715" height="1300"><g transform="translate(-402.00811988304497,-411.39857481989225) scale(1.4907103867989195)"><path class="link" style="stroke-width: 0.69px; stroke-opacity: 0.39; stroke: rgb(80, 80, 80); fill: none;" marker-end="" d="M762.5,618, 879.5,492"></path><path class="link" style="stroke-width: 0.69px; stroke-opacity: 0.39; stroke: rgb(80, 80, 80); fill: none;" marker-end="" d="M762.5,618, 879.5,534"></path><path class="link" style="stroke-width: 0.69px; stroke-opacity: 0.39; stroke: rgb(80, 80, 80); fill: none;" marker-end="" d="M762.5,618, 879.5,576"></path><path class="link" style="stroke-width: 0.69px; stroke-opacity: 0.39; stroke: rgb(80, 80, 80); fill: none;" marker-end="" d="M762.5,618, 879.5,618"></path><path class="link" style="stroke-width: 0.69px; stroke-opacity: 0.39; stroke: rgb(80, 80, 80); fill: none;" marker-end="" d="M762.5,618, 879.5,660"></path><path class="link" style="stroke-width: 0.69px; stroke-opacity: 0.39; stroke: rgb(80, 80, 80); fill: none;" marker-end="" d="M762.5,618, 879.5,702"></path><path class="link" style="stroke-width: 0.69px; stroke-opacity: 0.39; stroke: rgb(80, 80, 80); fill: none;" marker-end="" d="M762.5,618, 879.5,744"></path><path class="link" style="stroke-width: 0.69px; stroke-opacity: 0.39; stroke: rgb(80, 80, 80); fill: none;" marker-end="" d="M762.5,618, 879.5,786"></path><path class="link" style="stroke-width: 0.69px; stroke-opacity: 0.39; stroke: rgb(80, 80, 80); fill: none;" marker-end="" d="M762.5,618, 879.5,828"></path><path class="link" style="stroke-width: 0.69px; stroke-opacity: 0.39; stroke: rgb(80, 80, 80); fill: none;" marker-end="" d="M762.5,660, 879.5,492"></path><path class="link" style="stroke-width: 0.69px; stroke-opacity: 0.39; stroke: rgb(80, 80, 80); fill: none;" marker-end="" d="M762.5,660, 879.5,534"></path><path class="link" style="stroke-width: 0.69px; stroke-opacity: 0.39; stroke: rgb(80, 80, 80); fill: none;" marker-end="" d="M762.5,660, 879.5,576"></path><path class="link" style="stroke-width: 0.69px; stroke-opacity: 0.39; stroke: rgb(80, 80, 80); fill: none;" marker-end="" d="M762.5,660, 879.5,618"></path><path class="link" style="stroke-width: 0.69px; stroke-opacity: 0.39; stroke: rgb(80, 80, 80); fill: none;" marker-end="" d="M762.5,660, 879.5,660"></path><path class="link" style="stroke-width: 0.69px; stroke-opacity: 0.39; stroke: rgb(80, 80, 80); fill: none;" marker-end="" d="M762.5,660, 879.5,702"></path><path class="link" style="stroke-width: 0.69px; stroke-opacity: 0.39; stroke: rgb(80, 80, 80); fill: none;" marker-end="" d="M762.5,660, 879.5,744"></path><path class="link" style="stroke-width: 0.69px; stroke-opacity: 0.39; stroke: rgb(80, 80, 80); fill: none;" marker-end="" d="M762.5,660, 879.5,786"></path><path class="link" style="stroke-width: 0.69px; stroke-opacity: 0.39; stroke: rgb(80, 80, 80); fill: none;" marker-end="" d="M762.5,660, 879.5,828"></path><path class="link" style="stroke-width: 0.69px; stroke-opacity: 0.39; stroke: rgb(80, 80, 80); fill: none;" marker-end="" d="M762.5,618, 879.5,450"></path><path class="link" style="stroke-width: 0.69px; stroke-opacity: 0.39; stroke: rgb(80, 80, 80); fill: none;" marker-end="" d="M762.5,660, 879.5,450"></path><path class="link" style="stroke-width: 0.69px; stroke-opacity: 0.39; stroke: rgb(80, 80, 80); fill: none;" marker-end="" d="M879.5,450, 996.5,639"></path><path class="link" style="stroke-width: 0.69px; stroke-opacity: 0.39; stroke: rgb(80, 80, 80); fill: none;" marker-end="" d="M879.5,492, 996.5,639"></path><path class="link" style="stroke-width: 0.69px; stroke-opacity: 0.39; stroke: rgb(80, 80, 80); fill: none;" marker-end="" d="M879.5,534, 996.5,639"></path><path class="link" style="stroke-width: 0.69px; stroke-opacity: 0.39; stroke: rgb(80, 80, 80); fill: none;" marker-end="" d="M879.5,576, 996.5,639"></path><path class="link" style="stroke-width: 0.69px; stroke-opacity: 0.39; stroke: rgb(80, 80, 80); fill: none;" marker-end="" d="M879.5,618, 996.5,639"></path><path class="link" style="stroke-width: 0.69px; stroke-opacity: 0.39; stroke: rgb(80, 80, 80); fill: none;" marker-end="" d="M879.5,660, 996.5,639"></path><path class="link" style="stroke-width: 0.69px; stroke-opacity: 0.39; stroke: rgb(80, 80, 80); fill: none;" marker-end="" d="M879.5,702, 996.5,639"></path><path class="link" style="stroke-width: 0.69px; stroke-opacity: 0.39; stroke: rgb(80, 80, 80); fill: none;" marker-end="" d="M879.5,744, 996.5,639"></path><path class="link" style="stroke-width: 0.69px; stroke-opacity: 0.39; stroke: rgb(80, 80, 80); fill: none;" marker-end="" d="M879.5,786, 996.5,639"></path><path class="link" style="stroke-width: 0.69px; stroke-opacity: 0.39; stroke: rgb(80, 80, 80); fill: none;" marker-end="" d="M879.5,828, 996.5,639"></path><circle r="11" class="node" id="0_0" style="fill: rgb(255, 255, 255); stroke: rgb(51, 51, 51);" cx="762.5" cy="618"></circle><circle r="11" class="node" id="0_1" style="fill: rgb(255, 255, 255); stroke: rgb(51, 51, 51);" cx="762.5" cy="660"></circle><circle r="11" class="node" id="1_0" style="fill: rgb(255, 255, 255); stroke: rgb(51, 51, 51);" cx="879.5" cy="450"></circle><circle r="11" class="node" id="1_1" style="fill: rgb(255, 255, 255); stroke: rgb(51, 51, 51);" cx="879.5" cy="492"></circle><circle r="11" class="node" id="1_2" style="fill: rgb(255, 255, 255); stroke: rgb(51, 51, 51);" cx="879.5" cy="534"></circle><circle r="11" class="node" id="1_3" style="fill: rgb(255, 255, 255); stroke: rgb(51, 51, 51);" cx="879.5" cy="576"></circle><circle r="11" class="node" id="1_4" style="fill: rgb(255, 255, 255); stroke: rgb(51, 51, 51);" cx="879.5" cy="618"></circle><circle r="11" class="node" id="1_5" style="fill: rgb(255, 255, 255); stroke: rgb(51, 51, 51);" cx="879.5" cy="660"></circle><circle r="11" class="node" id="1_6" style="fill: rgb(255, 255, 255); stroke: rgb(51, 51, 51);" cx="879.5" cy="702"></circle><circle r="11" class="node" id="1_7" style="fill: rgb(255, 255, 255); stroke: rgb(51, 51, 51);" cx="879.5" cy="744"></circle><circle r="11" class="node" id="1_8" style="fill: rgb(255, 255, 255); stroke: rgb(51, 51, 51);" cx="879.5" cy="786"></circle><circle r="11" class="node" id="1_9" style="fill: rgb(255, 255, 255); stroke: rgb(51, 51, 51);" cx="879.5" cy="828"></circle><circle r="11" class="node" id="2_0" style="fill: rgb(255, 255, 255); stroke: rgb(51, 51, 51);" cx="996.5" cy="639"></circle><text class="text" dy=".35em" style="font-size: 12px;" x="727.5" y="870">Input Layer ∈ ℝ²</text><text class="text" dy=".35em" style="font-size: 12px;" x="844.5" y="870">Hidden Layer ∈ ℝ¹⁰</text><text class="text" dy=".35em" style="font-size: 12px;" x="961.5" y="870">Output Layer ∈ ℝ¹</text></g><defs><marker id="arrow" viewBox="0 -5 10 10" markerWidth="7" markerHeight="7" orient="auto" refX="42.8"><path d="M0,-5L10,0L0,5" style="stroke: rgb(80, 80, 80); fill: none;"></path></marker></defs></svg>